<svg xmlns="http://www.w3.org/2000/svg" viewBox="0 0 128 128" width="24" height="24">
  <defs>
    <style>
      .preonus-primary { fill: currentColor; }
      .preonus-accent { fill: currentColor; opacity: 0.8; }
    </style>
  </defs>
  
  <!-- Main logo shape -->
  <path class="preonus-primary" d="M97.94 23.75c1.6.03 1.6.03 3.23.05 2.61.05 5.22.11 7.83.19-22.73 30.45-22.73 30.45-37 40 3.07 3.18 6.27 6.11 9.62 9 6.12 5.48 11.24 11.62 16.38 18 1.55 1.93 3.09 3.87 4.63 5.81.48.61.96 1.22 1.46 1.85 3.35 4.28 3.35 4.28 3.35 5.4-23.63.87-23.63.87-34.19-8.25-3.61-3.44-6.94-7.05-10.18-10.85-9.05-10.57-20.01-16.42-32.63-21.9 3.18-3.18 7.47-4.7 11.53-6.55 11.44-5.48 19.92-14.7 28.59-23.74 8.41-8.61 13.6-11.36 25.82-10.36z"/>
  
  <!-- Secondary accent -->
  <path class="preonus-accent" d="M54.76 17.8c1.68.01 1.68.01 3.39.02 1.75.03 1.75.03 3.54.05 2.77.03 5.54.06 8.31.1-4.48 14.59-16.45 25.91-28.99 33.99-3.59 1.89-7.23 3.51-11 5-2.93 1.01-5.26 1.08-8.36 1 .64-.64 1.28-1.28 1.94-1.94 1.22-1.21 2.47-2.38 3.74-3.54 8.97-8.43 14.49-18.67 19.62-29.76 2.53-4.51 5.31-4.61 10.08-4.56z"/>
  
  <!-- Bottom accent -->
  <path class="preonus-accent" d="M18 69c6.74-.32 11.78.4 18 3 1.19.49 1.19.49 2.4 1 15.58 7.11 26.62 20.21 34.6 35 0 .66 0 1.32 0 2-4.06.17-8.12.28-12.19.38-1.15.05-2.3.1-3.49.15-8.51.15-8.51.15-12.38-2.86-2.1-3.74-4.08-7.46-5.88-11.34-4.68-9.68-10.82-20.52-21.06-25.12 0-.66 0-1.32 0-2z"/>
</svg>
